<?xml version="1.0" encoding="utf-8"?>
<!-- Generator: Adobe Illustrator 18.0.0, SVG Export Plug-In . SVG Version: 6.00 Build 0)  -->
<!DOCTYPE svg PUBLIC "-//W3C//DTD SVG 1.1//EN" "http://www.w3.org/Graphics/SVG/1.1/DTD/svg11.dtd">
<svg version="1.1" id="Layer_1" xmlns="http://www.w3.org/2000/svg" xmlns:xlink="http://www.w3.org/1999/xlink" x="0px" y="0px"
	 width="200px" height="40px" viewBox="0 0 200 40" enable-background="new 0 0 200 40" xml:space="preserve">
<g>
	<rect x="9" y="14" fill="#FFCC33" width="22" height="2"/>
</g>
<path fill="#697278" d="M33,9v22H7V9H33 M35,7H5v26h30V7L35,7z"/>
<path fill="#FFCC33" d="M57,17L54,25l8-3.1l3.1-8L57,17z"/>
<g>
	<g>
		<path fill="#697278" d="M113,8v17H93h-0.7l-0.5,0.4L86,29.9V27V8H113 M115,6H84v21v7l9-7h22V6L115,6z"/>
	</g>
</g>
<g>
	<rect x="93" y="15" fill="#FFCC33" width="13" height="2"/>
</g>
<path fill="#697278" d="M153,10v21h-26V10H153 M155,8h-30v25h30V8L155,8z"/>
<rect x="131" y="5" fill="#697278" width="3" height="4.9"/>
<rect x="146" y="5" fill="#697278" width="3" height="4.9"/>
<g>
	<rect x="173.1" y="21" fill="#FFCC33" width="2" height="6"/>
</g>
<g>
	<rect x="179" y="18" fill="#FFCC33" width="2" height="9"/>
</g>
<g>
	<rect x="185.1" y="15" fill="#FFCC33" width="2" height="12"/>
</g>
<path fill="#697278" d="M192.1,9v22h-24V9H192.1 M194.1,7h-28v26h28V7L194.1,7z"/>
<circle fill="none" stroke="#697278" stroke-width="2" stroke-miterlimit="10" cx="59.5" cy="19.5" r="13.5"/>
<polygon fill="#FFCC33" points="147.2,16.1 145.8,14.7 138,22.5 134.2,18.7 132.8,20.1 138,25.3 138,25.3 138,25.3 "/>
</svg>
